<?xml version="1.0" standalone="no"?><!DOCTYPE svg PUBLIC "-//W3C//DTD SVG 1.1//EN" "http://www.w3.org/Graphics/SVG/1.1/DTD/svg11.dtd"><svg t="1638190263891" class="icon" viewBox="0 0 1024 1024" version="1.1" xmlns="http://www.w3.org/2000/svg" p-id="13038" xmlns:xlink="http://www.w3.org/1999/xlink" width="200" height="200"><defs><style type="text/css"></style></defs><path d="M403.89 579.833h216.218L511.999 687.915 403.89 579.833zM512 64.304c-134.871 0-244.198 109.327-244.198 244.197 0 134.872 109.327 244.199 244.197 244.199s244.2-109.327 244.2-244.199c0-134.87-109.329-244.197-244.2-244.197z m0 434.129c-104.903 0-189.932-85.03-189.932-189.932 0-104.902 85.03-189.93 189.931-189.93 104.876 0 189.932 85.03 189.932 189.93 0 104.903-85.056 189.932-189.932 189.932z" fill="" p-id="13039"></path><path d="M512 199.968c59.936 0 108.532 48.596 108.532 108.533 0 59.937-48.595 108.533-108.533 108.533S403.467 368.44 403.467 308.501c0-59.936 48.596-108.533 108.532-108.533zM874.586 742.648c28.392-20.357 44.41-43.418 44.41-67.85 0-62.813-105.923-116.523-255.83-138.518-0.431 0.287-0.865 0.57-1.298 0.853 119.86 19.502 202.861 61.655 202.861 110.534 0 23.025-18.423 44.56-50.428 62.94-60.807-24.702-143.834-41.914-237.528-47.414l-0.116 0.116c95.09 6.1 176.794 25.397 228.646 52.197-63.279 32.716-171.018 54.259-293.304 54.259-122.285 0-230.023-21.543-293.303-54.26 51.853-26.798 133.556-46.096 228.646-52.196l-0.117-0.116c-93.695 5.5-176.72 22.712-237.528 47.414-32.006-18.38-50.428-39.915-50.428-62.94 0-48.88 83.001-91.032 202.86-110.534-0.432-0.283-0.866-0.566-1.296-0.853-149.908 21.995-255.831 75.705-255.831 138.519 0 24.431 16.018 47.492 44.41 67.85-28.391 20.342-44.41 43.39-44.41 67.816 0 82.405 182.221 149.231 406.997 149.231s406.998-66.826 406.998-149.231c-0.001-24.426-16.02-47.474-44.411-67.817zM511.999 905.431c-194.806 0-352.73-54.664-352.73-122.1 0-9.738 3.314-19.207 9.538-28.286 72.295 41.48 198.985 68.986 343.191 68.986s270.898-27.507 343.193-68.986c6.224 9.08 9.538 18.548 9.538 28.287 0.001 67.435-157.923 122.099-352.73 122.099z" fill="" p-id="13040"></path></svg>